<svg width="430" height="376" viewBox="0 0 430 376" fill="none" xmlns="http://www.w3.org/2000/svg">
<path d="M103.485 142.258C102.229 142.258 101.048 142.572 100.018 143.125C97.8507 139.587 93.9147 137.221 89.4175 137.221C87.2137 137.221 85.1463 137.791 83.3537 138.787C79.9062 133.813 74.1111 130.547 67.5413 130.547C56.9694 130.547 48.3989 139 48.3989 149.427H77.0412H86.6832H96.2159H101.793H110.752C110.754 145.468 107.499 142.258 103.485 142.258Z" fill="#95DDFF"/>
<path d="M336.445 167.555H311.099L303.618 126.179H326.827L336.445 167.555Z" fill="white"/>
<path d="M311.099 167.555H285.753L280.41 126.179H303.618L311.099 167.555Z" fill="#F5A623"/>
<path d="M285.753 167.555H260.407L257.201 126.179H280.41L285.753 167.555Z" fill="white"/>
<path d="M260.407 167.555H235.061L233.992 126.179H257.201L260.407 167.555Z" fill="#F5A623"/>
<path d="M235.061 167.555H209.715L210.783 126.179H233.992L235.061 167.555Z" fill="white"/>
<path d="M209.715 167.555H184.369L187.575 126.179H210.783L209.715 167.555Z" fill="#F5A623"/>
<path d="M184.369 167.555H159.023L164.366 126.179H187.575L184.369 167.555Z" fill="white"/>
<path d="M159.023 167.555H133.677L141.157 126.179H164.366L159.023 167.555Z" fill="#F5A623"/>
<path d="M133.677 167.555H108.331L117.948 126.179H141.157L133.677 167.555Z" fill="white"/>
<path d="M191.798 183.279H117.945V284.995H191.798V183.279Z" fill="#F5969C"/>
<path opacity="0.18" d="M180.217 264.293H129.525V266.91H180.217V264.293Z" fill="#282828" stroke="#282828" stroke-width="6" stroke-miterlimit="10" stroke-linecap="round" stroke-linejoin="round"/>
<path d="M188.265 208.724H177.194V213.773H188.265V208.724Z" fill="#DF747C"/>
<path d="M125.338 199.961H117.945V205.009H125.338V199.961Z" fill="#DF747C"/>
<path d="M192.635 215.066H184.769V220.114H192.635V215.066Z" fill="#DF747C"/>
<path d="M191.034 268.633H185.498V273.682H191.034V268.633Z" fill="#DF747C"/>
<path d="M148.499 268.633H137.427V273.682H148.499V268.633Z" fill="#DF747C"/>
<path d="M142.38 274.975H131.309V280.023H142.38V274.975Z" fill="#DF747C"/>
<path d="M192.235 183.279H117.945V284.995H192.235V183.279Z" stroke="#2D255E" stroke-width="6" stroke-miterlimit="10" stroke-linecap="round" stroke-linejoin="round"/>
<path d="M177.595 186.713H132.147V260.845H177.595V186.713Z" fill="#66CDFD"/>
<path d="M161.429 256.638H144.67C144.007 256.638 143.47 256.108 143.47 255.455V254.931C143.47 254.278 144.008 253.748 144.67 253.748H161.429C162.091 253.748 162.628 254.278 162.628 254.931V255.455C162.628 256.108 162.091 256.638 161.429 256.638Z" fill="#3297D9"/>
<path d="M156.656 256.114H149.518V261.183H156.656V256.114Z" fill="#3297D9"/>
<path d="M169.283 261.307H165.787V245.02C165.787 244.068 166.57 243.296 167.535 243.296C168.5 243.296 169.283 244.068 169.283 245.02V261.307Z" fill="#3297D9"/>
<path d="M140.85 261.307H137.354V245.02C137.354 244.068 138.137 243.296 139.102 243.296C140.068 243.296 140.85 244.068 140.85 245.02V261.307Z" fill="#3297D9"/>
<path opacity="0.3" d="M175.944 260.845L177.595 258.519V227.273L153.76 260.845H175.944Z" fill="white"/>
<path opacity="0.3" d="M150.774 260.845L177.595 223.066V216.007L145.762 260.845H150.774Z" fill="white"/>
<path opacity="0.3" d="M141.851 260.845L177.595 210.497V206.967L139.345 260.845H141.851Z" fill="white"/>
<path d="M177.595 186.713H132.147V260.845H177.595V186.713Z" stroke="#2D255E" stroke-width="6" stroke-miterlimit="10" stroke-linecap="round" stroke-linejoin="round"/>
<path d="M180.217 260.845H129.525V266.017H180.217V260.845Z" fill="#D49D7F"/>
<path d="M180.217 260.845H129.525V266.017H180.217V260.845Z" stroke="#2D255E" stroke-width="6" stroke-miterlimit="10" stroke-linecap="round" stroke-linejoin="round"/>
<path d="M252.541 310.856L252.541 184.752H192.235L192.235 310.856H252.541Z" fill="#D49D7F"/>
<path d="M252.541 310.856L252.541 184.752H192.235L192.235 310.856H252.541Z" stroke="#2D255E" stroke-width="6" stroke-miterlimit="10" stroke-linecap="round" stroke-linejoin="round"/>
<path d="M245.986 191.792H198.79V279.141H245.986V191.792Z" fill="#66CDFD"/>
<path opacity="0.3" d="M246.423 279.572V238.04L222.111 279.572H246.423Z" fill="white"/>
<path opacity="0.3" d="M219.241 279.141L245.986 233.453V219.18L210.885 279.141H219.241Z" fill="white"/>
<path opacity="0.3" d="M206.985 279.141L245.986 212.517V207.884L204.273 279.141H206.985Z" fill="white"/>
<path d="M245.986 191.792H198.79V279.141H245.986V191.792Z" stroke="#2D255E" stroke-width="6" stroke-miterlimit="10" stroke-linecap="round" stroke-linejoin="round"/>
<path d="M195.622 284.995H109.642V310.855H195.622V284.995Z" fill="#DB6B7B"/>
<path d="M113.321 284.995H109.642V310.855H113.321V284.995Z" fill="#CE5569"/>
<path d="M194.838 284.995H192.709V310.855H194.838V284.995Z" fill="#CE5569"/>
<path d="M195.622 284.995H109.642V310.855H195.622V284.995Z" stroke="#2D255E" stroke-width="6" stroke-miterlimit="10" stroke-linecap="round" stroke-linejoin="round"/>
<path d="M252.723 284.996L326.576 284.996L326.576 183.28L252.723 183.28L252.723 284.996Z" fill="#F5969C"/>
<path d="M320.532 274.975H309.46V280.023H320.532V274.975Z" fill="#DF747C"/>
<path d="M263.795 274.975H252.723V280.023H263.795V274.975Z" fill="#DF747C"/>
<path d="M313.903 268.633H302.831V273.682H313.903V268.633Z" fill="#DF747C"/>
<path d="M267.181 197.725H260.408V202.773H267.181V197.725Z" fill="#DF747C"/>
<path d="M259.059 246.636H252.286V251.685H259.059V246.636Z" fill="#DF747C"/>
<path d="M252.286 284.996L326.576 284.996L326.576 183.28L252.286 183.28L252.286 284.996Z" stroke="#2D255E" stroke-width="6" stroke-miterlimit="10" stroke-linecap="round" stroke-linejoin="round"/>
<path d="M312.374 186.713H266.926V260.845H312.374V186.713Z" fill="#66CDFD"/>
<path d="M283.092 256.638H299.851C300.513 256.638 301.05 256.108 301.05 255.455V254.931C301.05 254.278 300.513 253.748 299.851 253.748H283.092C282.429 253.748 281.893 254.278 281.893 254.931V255.455C281.893 256.108 282.429 256.638 283.092 256.638Z" fill="#3297D9"/>
<path d="M287.865 261.182L295.003 261.182L295.003 256.114L287.865 256.114L287.865 261.182Z" fill="#3297D9"/>
<path d="M275.237 261.307H278.733V245.02C278.733 244.068 277.951 243.296 276.985 243.296C276.02 243.296 275.237 244.068 275.237 245.02V261.307Z" fill="#3297D9"/>
<path d="M303.67 261.307H307.166V245.02C307.166 244.068 306.383 243.296 305.418 243.296C304.453 243.296 303.67 244.068 303.67 245.02V261.307Z" fill="#3297D9"/>
<path opacity="0.3" d="M310.723 260.845L312.373 258.519V227.273L288.539 260.845H310.723Z" fill="white"/>
<path opacity="0.3" d="M285.552 260.845L312.374 223.066V216.007L280.541 260.845H285.552Z" fill="white"/>
<path opacity="0.3" d="M276.629 260.845L312.374 210.497V206.967L274.123 260.845H276.629Z" fill="white"/>
<path d="M312.374 186.713H266.926V260.845H312.374V186.713Z" stroke="#2D255E" stroke-width="6" stroke-miterlimit="10" stroke-linecap="round" stroke-linejoin="round"/>
<path opacity="0.18" d="M314.995 264.293H264.303V266.91H314.995V264.293Z" fill="#282828" stroke="#282828" stroke-width="6" stroke-miterlimit="10" stroke-linecap="round" stroke-linejoin="round"/>
<path d="M264.303 266.016L314.995 266.016L314.995 260.844L264.303 260.844L264.303 266.016Z" fill="#D49D7F"/>
<path d="M264.303 266.016L314.995 266.016L314.995 260.844L264.303 260.844L264.303 266.016Z" stroke="#2D255E" stroke-width="6" stroke-miterlimit="10" stroke-linecap="round" stroke-linejoin="round"/>
<path d="M249.591 310.856L334.879 310.856L334.879 284.996L249.591 284.996L249.591 310.856Z" fill="#DB6B7B"/>
<path d="M252.723 284.995H249.591V310.855H252.723V284.995Z" fill="#CE5569"/>
<path d="M249.591 310.856L334.879 310.856L334.879 284.996L249.591 284.996L249.591 310.856Z" stroke="#2D255E" stroke-width="6" stroke-miterlimit="10" stroke-linecap="round" stroke-linejoin="round"/>
<path d="M207.275 252.994C206.189 252.994 205.308 252.125 205.308 251.054V230.223C205.308 229.151 206.189 228.283 207.275 228.283C208.361 228.283 209.241 229.151 209.241 230.223V251.054C209.241 252.125 208.361 252.994 207.275 252.994Z" fill="#2D255E"/>
<path opacity="0.18" d="M311.099 170.141H285.753H260.407H235.061H209.715H184.369H159.023H133.677H117.945V196.494C118.925 196.733 119.949 196.863 121.004 196.863C128.003 196.863 133.677 191.267 133.677 184.364C133.677 191.267 139.351 196.863 146.35 196.863C153.349 196.863 159.023 191.267 159.023 184.364C159.023 191.267 164.697 196.863 171.696 196.863C178.695 196.863 184.369 191.267 184.369 184.364C184.369 191.267 190.043 196.863 197.042 196.863C204.041 196.863 209.715 191.267 209.715 184.364C209.715 191.267 215.389 196.863 222.388 196.863C229.387 196.863 235.061 191.267 235.061 184.364C235.061 191.267 240.735 196.863 247.734 196.863C254.733 196.863 260.407 191.267 260.407 184.364C260.407 191.267 266.081 196.863 273.08 196.863C280.079 196.863 285.753 191.267 285.753 184.364C285.753 191.267 291.427 196.863 298.426 196.863C305.425 196.863 311.099 191.267 311.099 184.364C311.099 191.267 316.773 196.863 323.772 196.863C324.736 196.863 325.674 196.753 326.576 196.552V170.141H311.099Z" fill="#282828" stroke="#282828" stroke-width="6" stroke-miterlimit="10" stroke-linecap="round" stroke-linejoin="round"/>
<path d="M298.426 194.277C291.427 194.277 285.753 188.681 285.753 181.778V167.555H311.099V181.778C311.099 188.681 305.425 194.277 298.426 194.277Z" fill="#D68821"/>
<path d="M273.08 194.277C266.081 194.277 260.407 188.681 260.407 181.778V167.555H285.753V181.778C285.753 188.681 280.079 194.277 273.08 194.277Z" fill="#D6D6D6"/>
<path d="M247.734 194.277C240.735 194.277 235.061 188.681 235.061 181.778V167.555H260.407V181.778C260.407 188.681 254.733 194.277 247.734 194.277Z" fill="#D68821"/>
<path d="M222.388 194.277C215.389 194.277 209.715 188.681 209.715 181.778V167.555H235.061V181.778C235.061 188.681 229.387 194.277 222.388 194.277Z" fill="#D6D6D6"/>
<path d="M197.042 194.277C190.043 194.277 184.369 188.681 184.369 181.778V167.555H209.715V181.778C209.715 188.681 204.041 194.277 197.042 194.277Z" fill="#D68821"/>
<path d="M171.696 194.277C164.697 194.277 159.023 188.681 159.023 181.778V167.555H184.369V181.778C184.369 188.681 178.695 194.277 171.696 194.277Z" fill="#D6D6D6"/>
<path d="M146.35 194.277C139.351 194.277 133.677 188.681 133.677 181.778V167.555H159.023V181.778C159.023 188.681 153.349 194.277 146.35 194.277Z" fill="#D68821"/>
<path d="M121.004 194.277C114.005 194.277 108.331 188.681 108.331 181.778V167.555H133.677V181.778C133.677 188.681 128.003 194.277 121.004 194.277Z" fill="#D6D6D6"/>
<path d="M298.426 194.277C291.427 194.277 285.753 188.681 285.753 181.778V167.555H311.099V181.778C311.099 188.681 305.425 194.277 298.426 194.277Z" stroke="#2D255E" stroke-width="6" stroke-miterlimit="10" stroke-linecap="round" stroke-linejoin="round"/>
<path d="M273.08 194.277C266.081 194.277 260.407 188.681 260.407 181.778V167.555H285.753V181.778C285.753 188.681 280.079 194.277 273.08 194.277Z" stroke="#2D255E" stroke-width="6" stroke-miterlimit="10" stroke-linecap="round" stroke-linejoin="round"/>
<path d="M247.734 194.277C240.735 194.277 235.061 188.681 235.061 181.778V167.555H260.407V181.778C260.407 188.681 254.733 194.277 247.734 194.277Z" stroke="#2D255E" stroke-width="6" stroke-miterlimit="10" stroke-linecap="round" stroke-linejoin="round"/>
<path d="M222.388 194.277C215.389 194.277 209.715 188.681 209.715 181.778V167.555H235.061V181.778C235.061 188.681 229.387 194.277 222.388 194.277Z" stroke="#2D255E" stroke-width="6" stroke-miterlimit="10" stroke-linecap="round" stroke-linejoin="round"/>
<path d="M197.042 194.277C190.043 194.277 184.369 188.681 184.369 181.778V167.555H209.715V181.778C209.715 188.681 204.041 194.277 197.042 194.277Z" stroke="#2D255E" stroke-width="6" stroke-miterlimit="10" stroke-linecap="round" stroke-linejoin="round"/>
<path d="M171.696 194.277C164.697 194.277 159.023 188.681 159.023 181.778V167.555H184.369V181.778C184.369 188.681 178.695 194.277 171.696 194.277Z" stroke="#2D255E" stroke-width="6" stroke-miterlimit="10" stroke-linecap="round" stroke-linejoin="round"/>
<path d="M146.35 194.277C139.351 194.277 133.677 188.681 133.677 181.778V167.555H159.023V181.778C159.023 188.681 153.349 194.277 146.35 194.277Z" stroke="#2D255E" stroke-width="6" stroke-miterlimit="10" stroke-linecap="round" stroke-linejoin="round"/>
<path d="M121.004 194.277C114.005 194.277 108.331 188.681 108.331 181.778V167.555H133.677V181.778C133.677 188.681 128.003 194.277 121.004 194.277Z" stroke="#2D255E" stroke-width="6" stroke-miterlimit="10" stroke-linecap="round" stroke-linejoin="round"/>
<path d="M336.445 167.555H311.099L303.618 126.179H326.827L336.445 167.555Z" stroke="#2D255E" stroke-width="6" stroke-miterlimit="10" stroke-linecap="round" stroke-linejoin="round"/>
<path d="M311.099 167.555H285.753L280.41 126.179H303.618L311.099 167.555Z" stroke="#2D255E" stroke-width="6" stroke-miterlimit="10" stroke-linecap="round" stroke-linejoin="round"/>
<path d="M285.753 167.555H260.407L257.201 126.179H280.41L285.753 167.555Z" stroke="#2D255E" stroke-width="6" stroke-miterlimit="10" stroke-linecap="round" stroke-linejoin="round"/>
<path d="M260.407 167.555H235.061L233.992 126.179H257.201L260.407 167.555Z" stroke="#2D255E" stroke-width="6" stroke-miterlimit="10" stroke-linecap="round" stroke-linejoin="round"/>
<path d="M235.061 167.555H209.715L210.783 126.179H233.992L235.061 167.555Z" stroke="#2D255E" stroke-width="6" stroke-miterlimit="10" stroke-linecap="round" stroke-linejoin="round"/>
<path d="M209.715 167.555H184.369L187.575 126.179H210.783L209.715 167.555Z" stroke="#2D255E" stroke-width="6" stroke-miterlimit="10" stroke-linecap="round" stroke-linejoin="round"/>
<path d="M184.369 167.555H159.023L164.366 126.179H187.575L184.369 167.555Z" stroke="#2D255E" stroke-width="6" stroke-miterlimit="10" stroke-linecap="round" stroke-linejoin="round"/>
<path d="M159.023 167.555H133.677L141.157 126.179H164.366L159.023 167.555Z" stroke="#2D255E" stroke-width="6" stroke-miterlimit="10" stroke-linecap="round" stroke-linejoin="round"/>
<path d="M133.677 167.555H108.331L117.948 126.179H141.157L133.677 167.555Z" stroke="#2D255E" stroke-width="6" stroke-miterlimit="10" stroke-linecap="round" stroke-linejoin="round"/>
<path d="M326.831 118.421H117.945V126.179H326.831V118.421Z" fill="#DB6B7B"/>
<path d="M326.831 118.421H117.945V121.108H326.831V118.421Z" fill="#F5969C"/>
<path d="M326.831 118.421H117.945V126.179H326.831V118.421Z" stroke="#2D255E" stroke-width="6" stroke-miterlimit="10" stroke-linecap="round" stroke-linejoin="round"/>
<path d="M87.1487 261.197V285.758" stroke="#2D255E" stroke-width="6" stroke-miterlimit="10" stroke-linecap="round" stroke-linejoin="round"/>
<path d="M95.3533 261.973H92.7278C87.5515 261.973 83.355 257.834 83.355 252.729V231.513C83.355 226.408 87.5515 222.269 92.7278 222.269H95.3533C100.53 222.269 104.726 226.408 104.726 231.513V252.729C104.726 257.834 100.53 261.973 95.3533 261.973Z" fill="#14A56A"/>
<path d="M95.3533 261.973H92.7278C87.5515 261.973 83.355 257.834 83.355 252.729V231.513C83.355 226.408 87.5515 222.269 92.7278 222.269H95.3533C100.53 222.269 104.726 226.408 104.726 231.513V252.729C104.726 257.834 100.53 261.973 95.3533 261.973Z" stroke="#2D255E" stroke-width="6" stroke-miterlimit="10" stroke-linecap="round" stroke-linejoin="round"/>
<path d="M80.0464 269.747L81.3434 276.302L87.1485 278.48" stroke="#2D255E" stroke-width="6" stroke-miterlimit="10" stroke-linecap="round" stroke-linejoin="round"/>
<path d="M77.2815 270.85C73.0234 270.85 69.5715 267.445 69.5715 263.246V251.978C69.5715 247.778 73.0234 244.374 77.2815 244.374C81.5397 244.374 84.9915 247.778 84.9915 251.978V263.246C84.9915 267.445 81.5397 270.85 77.2815 270.85Z" fill="#12B075"/>
<path d="M77.2815 270.85C73.0234 270.85 69.5715 267.445 69.5715 263.246V251.978C69.5715 247.778 73.0234 244.374 77.2815 244.374C81.5397 244.374 84.9915 247.778 84.9915 251.978V263.246C84.9915 267.445 81.5397 270.85 77.2815 270.85Z" stroke="#2D255E" stroke-width="6" stroke-miterlimit="10" stroke-linecap="round" stroke-linejoin="round"/>
<path d="M97.0824 310.136H77.2142L74.5354 284.484H99.7617L97.0824 310.136Z" fill="#69351F"/>
<path d="M92.1895 284.484L89.5107 310.136H97.0831L99.7619 284.484H92.1895Z" fill="#632D1B"/>
<path d="M98.8299 289.844H89.3938V293.404H98.8299V289.844Z" fill="#562314"/>
<path d="M83.5975 296.146H75.5554V299.706H83.5975V296.146Z" fill="#562314"/>
<path d="M97.7729 301.749H86.698V305.309H97.7729V301.749Z" fill="#562314"/>
<path d="M97.0824 310.136H77.2142L74.5354 284.484H99.7617L97.0824 310.136Z" stroke="#2D255E" stroke-width="6" stroke-miterlimit="10" stroke-linecap="round" stroke-linejoin="round"/>
<path d="M87.6101 276.176L93.8282 272.84V242.121" stroke="#2D255E" stroke-width="6" stroke-miterlimit="10" stroke-linecap="round" stroke-linejoin="round"/>
<path d="M94.1123 251.557L98.8302 247.822" stroke="#2D255E" stroke-width="6" stroke-miterlimit="10" stroke-linecap="round" stroke-linejoin="round"/>
<path d="M235.6 219.636L212.519 224.475L214.82 235.154L237.901 230.316L235.6 219.636Z" fill="#E8E8E8"/>
<path d="M235.6 219.636L212.519 224.475L214.82 235.154L237.901 230.316L235.6 219.636Z" stroke="#2D255E" stroke-width="3" stroke-miterlimit="10" stroke-linecap="round" stroke-linejoin="round"/>
<path d="M217.692 226.926L231.907 223.946C232.467 223.829 233.017 224.182 233.137 224.734L233.554 226.668C233.672 227.221 233.315 227.764 232.755 227.881L218.541 230.861C217.981 230.979 217.43 230.626 217.311 230.073L216.894 228.139C216.774 227.587 217.132 227.044 217.692 226.926Z" fill="#D3D3D3"/>
<path d="M219.731 222.529L223.338 212.049L227.748 220.552" stroke="#2D255E" stroke-width="2" stroke-miterlimit="10" stroke-linecap="round" stroke-linejoin="round"/>
<path d="M223.338 213.916C224.062 213.916 224.649 213.337 224.649 212.623C224.649 211.909 224.062 211.33 223.338 211.33C222.614 211.33 222.027 211.909 222.027 212.623C222.027 213.337 222.614 213.916 223.338 213.916Z" fill="#2D255E"/>
<path d="M154.763 274.975H143.691V280.023H154.763V274.975Z" fill="#DF747C"/>
<path opacity="0.38" d="M88.5928 238.447L90.7188 242.121" stroke="#006837" stroke-width="6" stroke-miterlimit="10" stroke-linecap="round" stroke-linejoin="round"/>
<path opacity="0.38" d="M90.3774 230.275L92.5034 233.949" stroke="#006837" stroke-width="6" stroke-miterlimit="10" stroke-linecap="round" stroke-linejoin="round"/>
<path d="M95.408 229.588L97.5344 233.261" stroke="#39D188" stroke-width="6" stroke-miterlimit="10" stroke-linecap="round" stroke-linejoin="round"/>
<path opacity="0.38" d="M75.8604 259.149L77.1853 261.375" stroke="#006837" stroke-width="6" stroke-miterlimit="10" stroke-linecap="round" stroke-linejoin="round"/>
<path d="M76.6191 253.083L77.9441 255.31" stroke="#39D188" stroke-width="6" stroke-miterlimit="10" stroke-linecap="round" stroke-linejoin="round"/>
<path d="M323.772 194.277C316.773 194.277 311.099 188.681 311.099 181.778V167.555H336.445V181.778C336.445 188.681 330.771 194.277 323.772 194.277Z" fill="#D6D6D6"/>
<path d="M323.772 194.277C316.773 194.277 311.099 188.681 311.099 181.778V167.555H336.445V181.778C336.445 188.681 330.771 194.277 323.772 194.277Z" stroke="#2D255E" stroke-width="6" stroke-miterlimit="10" stroke-linecap="round" stroke-linejoin="round"/>
<path d="M340.341 244.058H323.735V310.855H340.341V244.058Z" fill="#D6D6D6"/>
<path d="M335.825 244.058H327.377V310.855H335.825V244.058Z" fill="white"/>
<path d="M340.341 244.058H323.735V310.855H340.341V244.058Z" stroke="#2D255E" stroke-width="6" stroke-miterlimit="10" stroke-linecap="round" stroke-linejoin="round"/>
<path d="M332.926 253.066H330.713C329.554 253.066 328.615 252.139 328.615 250.996V245.021H335.024V250.996C335.024 252.139 334.085 253.066 332.926 253.066Z" fill="#2D255E"/>
<path d="M55.4241 310.855H360.517" stroke="#2D255E" stroke-width="8" stroke-miterlimit="10" stroke-linecap="round" stroke-linejoin="round"/>
<path d="M364.596 100.119C362.55 100.119 360.676 100.84 359.217 102.036C356.68 96.0341 350.675 91.8151 343.67 91.8151C334.37 91.8151 326.831 99.2507 326.831 108.423H356.176H360.51H373.016C373.016 103.837 369.246 100.119 364.596 100.119Z" fill="#95DDFF"/>
<path d="M243.326 91.8151C243.227 85.4871 237.999 80.3862 231.559 80.3862C229.466 80.3862 227.503 80.9271 225.8 81.8715C223.945 78.8006 220.696 76.6451 216.913 76.2572C215.649 71.1896 211.013 67.4299 205.485 67.4299C203.976 67.4299 202.536 67.7127 201.211 68.2225C197.082 61.6731 189.724 57.3105 181.33 57.3105C170.273 57.3105 161.015 64.8767 158.57 75.044C156.828 74.2867 154.903 73.863 152.877 73.863C145.071 73.863 138.742 80.1044 138.742 87.8033C138.742 89.198 138.953 90.544 139.339 91.8146H243.326V91.8151Z" fill="#95DDFF"/>
</svg>
