<svg width="798" height="378" viewBox="0 0 798 378" fill="none" xmlns="http://www.w3.org/2000/svg">
<g filter="url(#filter0_d)">
<path d="M43.4275 366.977C32.855 366.977 -0.431396 378.992 -0.431396 378.992V0H798V385L758.128 378.992C758.128 378.992 832.277 345.422 721.745 366.977C611.214 388.531 663.354 351.596 671.407 340.943C679.461 330.289 641.644 326.425 631.536 346.45C621.427 366.474 554.823 362.314 560.763 360.468C566.704 358.622 565.386 340.363 473.544 366.977C381.702 393.59 332.173 341.372 375.858 335.436C419.543 329.499 333.676 323.922 301.597 351.957C269.518 379.992 238.865 368.956 195.937 373.485C153.008 378.014 145.126 341.641 140.116 351.957C135.107 362.273 54 366.977 43.4275 366.977Z" fill="#582315"/>
<path d="M43.4275 366.977C32.855 366.977 -0.431396 378.992 -0.431396 378.992V0H798V385L758.128 378.992C758.128 378.992 832.277 345.422 721.745 366.977C611.214 388.531 663.354 351.596 671.407 340.943C679.461 330.289 641.644 326.425 631.536 346.45C621.427 366.474 554.823 362.314 560.763 360.468C566.704 358.622 565.386 340.363 473.544 366.977C381.702 393.59 332.173 341.372 375.858 335.436C419.543 329.499 333.676 323.922 301.597 351.957C269.518 379.992 238.865 368.956 195.937 373.485C153.008 378.014 145.126 341.641 140.116 351.957C135.107 362.273 54 366.977 43.4275 366.977Z" stroke="#330A00"/>
</g>
<defs>
<filter id="filter0_d" x="-4.4314" y="0" width="806.431" height="393" filterUnits="userSpaceOnUse" color-interpolation-filters="sRGB">
<feFlood flood-opacity="0" result="BackgroundImageFix"/>
<feColorMatrix in="SourceAlpha" type="matrix" values="0 0 0 0 0 0 0 0 0 0 0 0 0 0 0 0 0 0 127 0"/>
<feOffset dy="4"/>
<feGaussianBlur stdDeviation="2"/>
<feColorMatrix type="matrix" values="0 0 0 0 0 0 0 0 0 0 0 0 0 0 0 0 0 0 0.25 0"/>
<feBlend mode="normal" in2="BackgroundImageFix" result="effect1_dropShadow"/>
<feBlend mode="normal" in="SourceGraphic" in2="effect1_dropShadow" result="shape"/>
</filter>
</defs>
</svg>
